<mxfile host="Electron" agent="Mozilla/5.0 (Windows NT 10.0; Win64; x64) AppleWebKit/537.36 (KHTML, like Gecko) draw.io/28.0.6 Chrome/138.0.7204.100 Electron/37.2.3 Safari/537.36" version="28.0.6">
  <diagram name="Page-1" id="3yTpCYbsEn7Hh5bmmn9E">
    <mxGraphModel dx="950" dy="1020" grid="1" gridSize="10" guides="1" tooltips="1" connect="1" arrows="1" fold="1" page="1" pageScale="1" pageWidth="850" pageHeight="1100" math="0" shadow="0">
      <root>
        <mxCell id="0" />
        <mxCell id="1" parent="0" />
        <mxCell id="7T5Y6DS8MIdMg8ZLO2jL-6" value="" style="group;rounded=1;fillColor=none;" vertex="1" connectable="0" parent="1">
          <mxGeometry x="110" y="230" width="250" height="740" as="geometry" />
        </mxCell>
        <mxCell id="7T5Y6DS8MIdMg8ZLO2jL-1" value="" style="rounded=1;whiteSpace=wrap;html=1;fillColor=none;" vertex="1" parent="7T5Y6DS8MIdMg8ZLO2jL-6">
          <mxGeometry y="20" width="250" height="720" as="geometry" />
        </mxCell>
        <mxCell id="7T5Y6DS8MIdMg8ZLO2jL-2" value="&lt;font style=&quot;font-size: 22px;&quot;&gt;&lt;b style=&quot;&quot;&gt;Sources&lt;/b&gt;&lt;/font&gt;" style="text;html=1;align=center;verticalAlign=middle;whiteSpace=wrap;rounded=0;fillColor=default;" vertex="1" parent="7T5Y6DS8MIdMg8ZLO2jL-6">
          <mxGeometry x="80" width="90" height="40" as="geometry" />
        </mxCell>
        <mxCell id="7T5Y6DS8MIdMg8ZLO2jL-4" value="&lt;font style=&quot;font-size: 17px;&quot;&gt;&lt;b&gt;ERP&lt;/b&gt;&lt;/font&gt;" style="image;aspect=fixed;html=1;points=[];align=center;fontSize=12;image=img/lib/azure2/general/Folder_Blank.svg;" vertex="1" parent="7T5Y6DS8MIdMg8ZLO2jL-6">
          <mxGeometry x="60" y="460" width="109.5" height="88.87" as="geometry" />
        </mxCell>
        <mxCell id="7T5Y6DS8MIdMg8ZLO2jL-5" value="&lt;font style=&quot;font-size: 18px;&quot;&gt;&lt;b&gt;CRM&lt;/b&gt;&lt;/font&gt;" style="image;aspect=fixed;html=1;points=[];align=center;fontSize=12;image=img/lib/azure2/general/Folder_Blank.svg;" vertex="1" parent="7T5Y6DS8MIdMg8ZLO2jL-6">
          <mxGeometry x="70.25" y="170" width="109.5" height="88.87" as="geometry" />
        </mxCell>
        <mxCell id="7T5Y6DS8MIdMg8ZLO2jL-33" style="edgeStyle=orthogonalEdgeStyle;rounded=0;orthogonalLoop=1;jettySize=auto;html=1;entryX=0;entryY=0.5;entryDx=0;entryDy=0;" edge="1" parent="1" source="7T5Y6DS8MIdMg8ZLO2jL-5" target="7T5Y6DS8MIdMg8ZLO2jL-12">
          <mxGeometry relative="1" as="geometry">
            <Array as="points">
              <mxPoint x="490" y="444" />
              <mxPoint x="490" y="355" />
            </Array>
          </mxGeometry>
        </mxCell>
        <mxCell id="7T5Y6DS8MIdMg8ZLO2jL-34" style="edgeStyle=orthogonalEdgeStyle;rounded=0;orthogonalLoop=1;jettySize=auto;html=1;entryX=0;entryY=0.5;entryDx=0;entryDy=0;" edge="1" parent="1" source="7T5Y6DS8MIdMg8ZLO2jL-5" target="7T5Y6DS8MIdMg8ZLO2jL-19">
          <mxGeometry relative="1" as="geometry">
            <Array as="points">
              <mxPoint x="490" y="444" />
              <mxPoint x="490" y="515" />
            </Array>
          </mxGeometry>
        </mxCell>
        <mxCell id="7T5Y6DS8MIdMg8ZLO2jL-35" style="edgeStyle=orthogonalEdgeStyle;rounded=0;orthogonalLoop=1;jettySize=auto;html=1;entryX=0;entryY=0.75;entryDx=0;entryDy=0;" edge="1" parent="1" source="7T5Y6DS8MIdMg8ZLO2jL-5" target="7T5Y6DS8MIdMg8ZLO2jL-18">
          <mxGeometry relative="1" as="geometry">
            <Array as="points">
              <mxPoint x="661" y="444" />
            </Array>
          </mxGeometry>
        </mxCell>
        <mxCell id="7T5Y6DS8MIdMg8ZLO2jL-36" style="edgeStyle=orthogonalEdgeStyle;rounded=0;orthogonalLoop=1;jettySize=auto;html=1;" edge="1" parent="1" source="7T5Y6DS8MIdMg8ZLO2jL-4" target="7T5Y6DS8MIdMg8ZLO2jL-20">
          <mxGeometry relative="1" as="geometry">
            <Array as="points">
              <mxPoint x="490" y="734" />
              <mxPoint x="490" y="660" />
            </Array>
          </mxGeometry>
        </mxCell>
        <mxCell id="7T5Y6DS8MIdMg8ZLO2jL-37" style="edgeStyle=orthogonalEdgeStyle;rounded=0;orthogonalLoop=1;jettySize=auto;html=1;" edge="1" parent="1" source="7T5Y6DS8MIdMg8ZLO2jL-4" target="7T5Y6DS8MIdMg8ZLO2jL-21">
          <mxGeometry relative="1" as="geometry" />
        </mxCell>
        <mxCell id="7T5Y6DS8MIdMg8ZLO2jL-38" style="edgeStyle=orthogonalEdgeStyle;rounded=0;orthogonalLoop=1;jettySize=auto;html=1;entryX=0;entryY=0.5;entryDx=0;entryDy=0;" edge="1" parent="1" source="7T5Y6DS8MIdMg8ZLO2jL-4" target="7T5Y6DS8MIdMg8ZLO2jL-22">
          <mxGeometry relative="1" as="geometry">
            <Array as="points">
              <mxPoint x="490" y="734" />
              <mxPoint x="490" y="815" />
            </Array>
          </mxGeometry>
        </mxCell>
        <mxCell id="7T5Y6DS8MIdMg8ZLO2jL-39" value="" style="group" vertex="1" connectable="0" parent="1">
          <mxGeometry x="630" y="170" width="260" height="790" as="geometry" />
        </mxCell>
        <mxCell id="7T5Y6DS8MIdMg8ZLO2jL-7" value="" style="group" vertex="1" connectable="0" parent="7T5Y6DS8MIdMg8ZLO2jL-39">
          <mxGeometry y="50" width="260" height="740" as="geometry" />
        </mxCell>
        <mxCell id="7T5Y6DS8MIdMg8ZLO2jL-8" value="" style="rounded=1;whiteSpace=wrap;html=1;fillColor=none;" vertex="1" parent="7T5Y6DS8MIdMg8ZLO2jL-7">
          <mxGeometry y="20" width="260" height="720" as="geometry" />
        </mxCell>
        <mxCell id="7T5Y6DS8MIdMg8ZLO2jL-12" value="&lt;font&gt;crm_sales_details&lt;/font&gt;" style="rounded=1;whiteSpace=wrap;html=1;fontSize=18;fillColor=#a0522d;strokeColor=#6D1F00;fontColor=#ffffff;" vertex="1" parent="7T5Y6DS8MIdMg8ZLO2jL-7">
          <mxGeometry x="31.200000000000003" y="110" width="197.6" height="50" as="geometry" />
        </mxCell>
        <mxCell id="7T5Y6DS8MIdMg8ZLO2jL-18" value="crm_cust_info" style="rounded=1;whiteSpace=wrap;html=1;fontSize=18;fillColor=#a0522d;strokeColor=#6D1F00;fontColor=#ffffff;" vertex="1" parent="7T5Y6DS8MIdMg8ZLO2jL-7">
          <mxGeometry x="31.200000000000003" y="190" width="197.6" height="50" as="geometry" />
        </mxCell>
        <mxCell id="7T5Y6DS8MIdMg8ZLO2jL-19" value="crm_prd_info" style="rounded=1;whiteSpace=wrap;html=1;fontSize=18;fillColor=#a0522d;strokeColor=#6D1F00;fontColor=#ffffff;" vertex="1" parent="7T5Y6DS8MIdMg8ZLO2jL-7">
          <mxGeometry x="31.200000000000003" y="270" width="197.6" height="50" as="geometry" />
        </mxCell>
        <mxCell id="7T5Y6DS8MIdMg8ZLO2jL-20" value="erp_cust_az12" style="rounded=1;whiteSpace=wrap;html=1;fontSize=18;fillColor=#a0522d;strokeColor=#6D1F00;fontColor=#ffffff;" vertex="1" parent="7T5Y6DS8MIdMg8ZLO2jL-7">
          <mxGeometry x="36.4" y="410" width="197.6" height="50" as="geometry" />
        </mxCell>
        <mxCell id="7T5Y6DS8MIdMg8ZLO2jL-21" value="erp_loc_a101" style="rounded=1;whiteSpace=wrap;html=1;fontSize=18;fillColor=#a0522d;strokeColor=#6D1F00;fontColor=#ffffff;" vertex="1" parent="7T5Y6DS8MIdMg8ZLO2jL-7">
          <mxGeometry x="36.4" y="490" width="197.6" height="50" as="geometry" />
        </mxCell>
        <mxCell id="7T5Y6DS8MIdMg8ZLO2jL-22" value="erp_px_cat_g1v2" style="rounded=1;whiteSpace=wrap;html=1;fontSize=18;fillColor=#a0522d;strokeColor=#6D1F00;fontColor=#ffffff;" vertex="1" parent="7T5Y6DS8MIdMg8ZLO2jL-7">
          <mxGeometry x="36.4" y="570" width="197.6" height="50" as="geometry" />
        </mxCell>
        <mxCell id="7T5Y6DS8MIdMg8ZLO2jL-32" value="&lt;font style=&quot;font-size: 22px;&quot;&gt;&lt;b style=&quot;&quot;&gt;Bronze Layer&lt;/b&gt;&lt;/font&gt;" style="text;html=1;align=center;verticalAlign=middle;whiteSpace=wrap;rounded=1;fillColor=#a0522d;strokeColor=#6D1F00;fontColor=#ffffff;" vertex="1" parent="7T5Y6DS8MIdMg8ZLO2jL-39">
          <mxGeometry x="25" width="205" height="60" as="geometry" />
        </mxCell>
        <mxCell id="7T5Y6DS8MIdMg8ZLO2jL-40" value="" style="group" vertex="1" connectable="0" parent="1">
          <mxGeometry x="1070" y="170" width="260" height="790" as="geometry" />
        </mxCell>
        <mxCell id="7T5Y6DS8MIdMg8ZLO2jL-41" value="" style="group" vertex="1" connectable="0" parent="7T5Y6DS8MIdMg8ZLO2jL-40">
          <mxGeometry y="50" width="260" height="740" as="geometry" />
        </mxCell>
        <mxCell id="7T5Y6DS8MIdMg8ZLO2jL-42" value="" style="rounded=1;whiteSpace=wrap;html=1;fillColor=none;" vertex="1" parent="7T5Y6DS8MIdMg8ZLO2jL-41">
          <mxGeometry y="20" width="260" height="720" as="geometry" />
        </mxCell>
        <mxCell id="7T5Y6DS8MIdMg8ZLO2jL-43" value="&lt;font&gt;crm_sales_details&lt;/font&gt;" style="rounded=1;whiteSpace=wrap;html=1;fontSize=18;fillColor=#bac8d3;strokeColor=#23445d;" vertex="1" parent="7T5Y6DS8MIdMg8ZLO2jL-41">
          <mxGeometry x="31.200000000000003" y="110" width="197.6" height="50" as="geometry" />
        </mxCell>
        <mxCell id="7T5Y6DS8MIdMg8ZLO2jL-44" value="crm_cust_info" style="rounded=1;whiteSpace=wrap;html=1;fontSize=18;fillColor=#bac8d3;strokeColor=#23445d;" vertex="1" parent="7T5Y6DS8MIdMg8ZLO2jL-41">
          <mxGeometry x="31.200000000000003" y="190" width="197.6" height="50" as="geometry" />
        </mxCell>
        <mxCell id="7T5Y6DS8MIdMg8ZLO2jL-45" value="crm_prd_info" style="rounded=1;whiteSpace=wrap;html=1;fontSize=18;fillColor=#bac8d3;strokeColor=#23445d;" vertex="1" parent="7T5Y6DS8MIdMg8ZLO2jL-41">
          <mxGeometry x="31.200000000000003" y="270" width="197.6" height="50" as="geometry" />
        </mxCell>
        <mxCell id="7T5Y6DS8MIdMg8ZLO2jL-46" value="erp_cust_az12" style="rounded=1;whiteSpace=wrap;html=1;fontSize=18;fillColor=#bac8d3;strokeColor=#23445d;" vertex="1" parent="7T5Y6DS8MIdMg8ZLO2jL-41">
          <mxGeometry x="36.4" y="410" width="197.6" height="50" as="geometry" />
        </mxCell>
        <mxCell id="7T5Y6DS8MIdMg8ZLO2jL-47" value="erp_loc_a101" style="rounded=1;whiteSpace=wrap;html=1;fontSize=18;fillColor=#bac8d3;strokeColor=#23445d;" vertex="1" parent="7T5Y6DS8MIdMg8ZLO2jL-41">
          <mxGeometry x="36.4" y="490" width="197.6" height="50" as="geometry" />
        </mxCell>
        <mxCell id="7T5Y6DS8MIdMg8ZLO2jL-48" value="erp_px_cat_g1v2" style="rounded=1;whiteSpace=wrap;html=1;fontSize=18;fillColor=#bac8d3;strokeColor=#23445d;" vertex="1" parent="7T5Y6DS8MIdMg8ZLO2jL-41">
          <mxGeometry x="36.4" y="570" width="197.6" height="50" as="geometry" />
        </mxCell>
        <mxCell id="7T5Y6DS8MIdMg8ZLO2jL-49" value="&lt;font style=&quot;font-size: 22px;&quot;&gt;&lt;b style=&quot;&quot;&gt;Silver Layer&lt;/b&gt;&lt;/font&gt;" style="text;html=1;align=center;verticalAlign=middle;whiteSpace=wrap;rounded=1;fillColor=#bac8d3;strokeColor=#23445d;" vertex="1" parent="7T5Y6DS8MIdMg8ZLO2jL-40">
          <mxGeometry x="25" width="210" height="60" as="geometry" />
        </mxCell>
        <mxCell id="7T5Y6DS8MIdMg8ZLO2jL-50" value="" style="group" vertex="1" connectable="0" parent="1">
          <mxGeometry x="1490" y="170" width="260" height="790" as="geometry" />
        </mxCell>
        <mxCell id="7T5Y6DS8MIdMg8ZLO2jL-51" value="" style="group" vertex="1" connectable="0" parent="7T5Y6DS8MIdMg8ZLO2jL-50">
          <mxGeometry y="50" width="260" height="740" as="geometry" />
        </mxCell>
        <mxCell id="7T5Y6DS8MIdMg8ZLO2jL-52" value="" style="rounded=1;whiteSpace=wrap;html=1;fillColor=none;" vertex="1" parent="7T5Y6DS8MIdMg8ZLO2jL-51">
          <mxGeometry y="20" width="260" height="720" as="geometry" />
        </mxCell>
        <mxCell id="7T5Y6DS8MIdMg8ZLO2jL-53" value="&lt;font&gt;fact_sales&lt;/font&gt;" style="rounded=1;whiteSpace=wrap;html=1;fontSize=18;fillColor=#ffcd28;strokeColor=#d79b00;gradientColor=#ffa500;" vertex="1" parent="7T5Y6DS8MIdMg8ZLO2jL-51">
          <mxGeometry x="31.200000000000003" y="150" width="197.6" height="50" as="geometry" />
        </mxCell>
        <mxCell id="7T5Y6DS8MIdMg8ZLO2jL-54" value="dim_customers" style="rounded=1;whiteSpace=wrap;html=1;fontSize=18;fillColor=#ffcd28;strokeColor=#d79b00;gradientColor=#ffa500;" vertex="1" parent="7T5Y6DS8MIdMg8ZLO2jL-51">
          <mxGeometry x="31.200000000000003" y="355" width="197.6" height="50" as="geometry" />
        </mxCell>
        <mxCell id="7T5Y6DS8MIdMg8ZLO2jL-55" value="dim_products" style="rounded=1;whiteSpace=wrap;html=1;fontSize=18;fillColor=#ffcd28;strokeColor=#d79b00;gradientColor=#ffa500;" vertex="1" parent="7T5Y6DS8MIdMg8ZLO2jL-51">
          <mxGeometry x="31.200000000000003" y="560" width="197.6" height="50" as="geometry" />
        </mxCell>
        <mxCell id="7T5Y6DS8MIdMg8ZLO2jL-59" value="&lt;font style=&quot;font-size: 22px;&quot;&gt;&lt;b style=&quot;&quot;&gt;Gold Layer&lt;/b&gt;&lt;/font&gt;" style="text;html=1;align=center;verticalAlign=middle;whiteSpace=wrap;rounded=1;fillColor=#ffcd28;strokeColor=#d79b00;gradientColor=#ffa500;" vertex="1" parent="7T5Y6DS8MIdMg8ZLO2jL-50">
          <mxGeometry x="25" width="210" height="60" as="geometry" />
        </mxCell>
        <mxCell id="7T5Y6DS8MIdMg8ZLO2jL-60" style="edgeStyle=orthogonalEdgeStyle;rounded=0;orthogonalLoop=1;jettySize=auto;html=1;exitX=1;exitY=0.5;exitDx=0;exitDy=0;entryX=0;entryY=0.5;entryDx=0;entryDy=0;" edge="1" parent="1" source="7T5Y6DS8MIdMg8ZLO2jL-12" target="7T5Y6DS8MIdMg8ZLO2jL-43">
          <mxGeometry relative="1" as="geometry" />
        </mxCell>
        <mxCell id="7T5Y6DS8MIdMg8ZLO2jL-61" style="edgeStyle=orthogonalEdgeStyle;rounded=0;orthogonalLoop=1;jettySize=auto;html=1;exitX=1;exitY=0.5;exitDx=0;exitDy=0;entryX=0;entryY=0.5;entryDx=0;entryDy=0;" edge="1" parent="1" source="7T5Y6DS8MIdMg8ZLO2jL-18" target="7T5Y6DS8MIdMg8ZLO2jL-44">
          <mxGeometry relative="1" as="geometry" />
        </mxCell>
        <mxCell id="7T5Y6DS8MIdMg8ZLO2jL-62" style="edgeStyle=orthogonalEdgeStyle;rounded=0;orthogonalLoop=1;jettySize=auto;html=1;exitX=1;exitY=0.5;exitDx=0;exitDy=0;entryX=0;entryY=0.5;entryDx=0;entryDy=0;" edge="1" parent="1" source="7T5Y6DS8MIdMg8ZLO2jL-19" target="7T5Y6DS8MIdMg8ZLO2jL-45">
          <mxGeometry relative="1" as="geometry" />
        </mxCell>
        <mxCell id="7T5Y6DS8MIdMg8ZLO2jL-63" style="edgeStyle=orthogonalEdgeStyle;rounded=0;orthogonalLoop=1;jettySize=auto;html=1;exitX=1;exitY=0.5;exitDx=0;exitDy=0;" edge="1" parent="1" source="7T5Y6DS8MIdMg8ZLO2jL-20" target="7T5Y6DS8MIdMg8ZLO2jL-46">
          <mxGeometry relative="1" as="geometry" />
        </mxCell>
        <mxCell id="7T5Y6DS8MIdMg8ZLO2jL-64" style="edgeStyle=orthogonalEdgeStyle;rounded=0;orthogonalLoop=1;jettySize=auto;html=1;exitX=1;exitY=0.5;exitDx=0;exitDy=0;" edge="1" parent="1" source="7T5Y6DS8MIdMg8ZLO2jL-21" target="7T5Y6DS8MIdMg8ZLO2jL-47">
          <mxGeometry relative="1" as="geometry" />
        </mxCell>
        <mxCell id="7T5Y6DS8MIdMg8ZLO2jL-65" style="edgeStyle=orthogonalEdgeStyle;rounded=0;orthogonalLoop=1;jettySize=auto;html=1;exitX=1;exitY=0.5;exitDx=0;exitDy=0;entryX=0;entryY=0.5;entryDx=0;entryDy=0;" edge="1" parent="1" source="7T5Y6DS8MIdMg8ZLO2jL-22" target="7T5Y6DS8MIdMg8ZLO2jL-48">
          <mxGeometry relative="1" as="geometry" />
        </mxCell>
        <mxCell id="7T5Y6DS8MIdMg8ZLO2jL-66" style="edgeStyle=orthogonalEdgeStyle;rounded=0;orthogonalLoop=1;jettySize=auto;html=1;exitX=1;exitY=0.5;exitDx=0;exitDy=0;" edge="1" parent="1" source="7T5Y6DS8MIdMg8ZLO2jL-43" target="7T5Y6DS8MIdMg8ZLO2jL-53">
          <mxGeometry relative="1" as="geometry" />
        </mxCell>
        <mxCell id="7T5Y6DS8MIdMg8ZLO2jL-67" style="edgeStyle=orthogonalEdgeStyle;rounded=0;orthogonalLoop=1;jettySize=auto;html=1;exitX=1;exitY=0.5;exitDx=0;exitDy=0;entryX=0;entryY=0.5;entryDx=0;entryDy=0;" edge="1" parent="1" source="7T5Y6DS8MIdMg8ZLO2jL-44" target="7T5Y6DS8MIdMg8ZLO2jL-54">
          <mxGeometry relative="1" as="geometry" />
        </mxCell>
        <mxCell id="7T5Y6DS8MIdMg8ZLO2jL-69" style="edgeStyle=orthogonalEdgeStyle;rounded=0;orthogonalLoop=1;jettySize=auto;html=1;entryX=0;entryY=0.5;entryDx=0;entryDy=0;" edge="1" parent="1" source="7T5Y6DS8MIdMg8ZLO2jL-46" target="7T5Y6DS8MIdMg8ZLO2jL-54">
          <mxGeometry relative="1" as="geometry">
            <Array as="points">
              <mxPoint x="1410" y="655" />
              <mxPoint x="1410" y="600" />
            </Array>
          </mxGeometry>
        </mxCell>
        <mxCell id="7T5Y6DS8MIdMg8ZLO2jL-70" style="edgeStyle=orthogonalEdgeStyle;rounded=0;orthogonalLoop=1;jettySize=auto;html=1;exitX=1;exitY=0.5;exitDx=0;exitDy=0;entryX=0;entryY=0.5;entryDx=0;entryDy=0;" edge="1" parent="1" source="7T5Y6DS8MIdMg8ZLO2jL-47" target="7T5Y6DS8MIdMg8ZLO2jL-54">
          <mxGeometry relative="1" as="geometry">
            <Array as="points">
              <mxPoint x="1410" y="735" />
              <mxPoint x="1410" y="600" />
            </Array>
          </mxGeometry>
        </mxCell>
        <mxCell id="7T5Y6DS8MIdMg8ZLO2jL-71" style="edgeStyle=orthogonalEdgeStyle;rounded=0;orthogonalLoop=1;jettySize=auto;html=1;entryX=0;entryY=0.5;entryDx=0;entryDy=0;" edge="1" parent="1" source="7T5Y6DS8MIdMg8ZLO2jL-45" target="7T5Y6DS8MIdMg8ZLO2jL-55">
          <mxGeometry relative="1" as="geometry">
            <Array as="points">
              <mxPoint x="1360" y="515" />
              <mxPoint x="1360" y="805" />
            </Array>
          </mxGeometry>
        </mxCell>
        <mxCell id="7T5Y6DS8MIdMg8ZLO2jL-73" style="edgeStyle=orthogonalEdgeStyle;rounded=0;orthogonalLoop=1;jettySize=auto;html=1;exitX=1;exitY=0.5;exitDx=0;exitDy=0;entryX=0;entryY=0.5;entryDx=0;entryDy=0;" edge="1" parent="1" source="7T5Y6DS8MIdMg8ZLO2jL-48" target="7T5Y6DS8MIdMg8ZLO2jL-55">
          <mxGeometry relative="1" as="geometry" />
        </mxCell>
      </root>
    </mxGraphModel>
  </diagram>
</mxfile>
